<svg xmlns="http://www.w3.org/2000/svg" width="1024" height="1024" viewBox="0 0 1024 1024">
  <defs>
    <radialGradient id="g" cx="38%" cy="30%" r="85%">
      <stop offset="0%" stop-color="#ff5a48"/>
      <stop offset="55%" stop-color="#e0301e"/>
      <stop offset="100%" stop-color="#b01206"/>
    </radialGradient>
  </defs>
  <rect x="0" y="0" width="1024" height="1024" rx="220" fill="url(#g)"/>
  <path d="M512.0 512.0 L513.0 512.1 L514.1 512.2 L515.1 512.5 L516.0 512.8 L517.0 513.3 L517.9 513.9 L518.8 514.5 L519.6 515.3 L520.3 516.1 L521.0 517.0 L521.6 518.0 L522.1 519.1 L522.6 520.3 L522.9 521.5 L523.2 522.7 L523.3 524.0 L523.3 525.4 L523.3 526.8 L523.1 528.2 L522.8 529.6 L522.4 531.0 L521.8 532.5 L521.2 533.9 L520.4 535.3 L519.5 536.7 L518.5 538.0 L517.3 539.3 L516.1 540.6 L514.7 541.8 L513.2 542.9 L511.6 544.0 L509.9 544.9 L508.1 545.8 L506.2 546.6 L504.3 547.3 L502.2 547.8 L500.1 548.2 L497.9 548.5 L495.6 548.7 L493.3 548.8 L490.9 548.6 L488.5 548.4 L486.1 548.0 L483.6 547.4 L481.2 546.7 L478.7 545.8 L476.3 544.8 L473.9 543.6 L471.5 542.2 L469.1 540.6 L466.8 538.9 L464.6 537.1 L462.5 535.1 L460.4 532.9 L458.4 530.6 L456.5 528.1 L454.8 525.5 L453.2 522.7 L451.7 519.9 L450.3 516.9 L449.1 513.7 L448.1 510.5 L447.2 507.2 L446.5 503.7 L446.0 500.2 L445.7 496.6 L445.6 493.0 L445.7 489.3 L445.9 485.5 L446.4 481.8 L447.2 478.0 L448.1 474.2 L449.2 470.4 L450.6 466.7 L452.2 462.9 L454.0 459.3 L456.1 455.6 L458.3 452.1 L460.8 448.6 L463.5 445.3 L466.4 442.0 L469.5 438.9 L472.8 435.9 L476.4 433.0 L480.1 430.4 L483.9 427.9 L488.0 425.6 L492.2 423.4 L496.6 421.5 L501.1 419.8 L505.7 418.4 L510.5 417.1 L515.4 416.2 L520.4 415.4 L525.4 415.0 L530.6 414.8 L535.7 414.8 L541.0 415.2 L546.2 415.8 L551.5 416.7 L556.7 417.9 L561.9 419.4 L567.1 421.2 L572.3 423.3 L577.4 425.7 L582.3 428.3 L587.2 431.3 L592.0 434.5 L596.6 438.0 L601.1 441.8 L605.4 445.8 L609.5 450.1 L613.4 454.7 L617.2 459.5 L620.7 464.5 L623.9 469.7 L626.9 475.2 L629.6 480.8 L632.1 486.6 L634.2 492.6 L636.1 498.8 L637.6 505.1 L638.8 511.5 L639.7 518.0 L640.3 524.6 L640.5 531.3 L640.4 538.1 L639.9 544.8 L639.0 551.6 L637.8 558.4 L636.2 565.2 L634.2 571.9 L631.9 578.5 L629.3 585.1 L626.2 591.6 L622.8 598.0 L619.1 604.2 L615.0 610.2 L610.5 616.1 L605.8 621.8 L600.7 627.2 L595.3 632.5 L589.5 637.4 L583.5 642.1 L577.3 646.5 L570.7 650.6 L563.9 654.4 L556.9 657.9 L549.6 661.0 L542.2 663.7 L534.5 666.1 L526.8 668.1 L518.8 669.6 L510.8 670.8 L502.6 671.6 L494.3 671.9 L486.0 671.8 L477.7 671.3 L469.4 670.3 L461.0 668.9 L452.7 667.1 L444.4 664.8 L436.3 662.1 L428.2 658.9 L420.3 655.3 L412.5 651.3 L404.9 646.8 L397.4 642.0 L390.2 636.7 L383.3 631.0 L376.6 624.9 L370.2 618.5 L364.1 611.7 L358.3 604.6 L352.8 597.1 L347.8 589.3 L343.1 581.2 L338.8 572.8 L334.9 564.2 L331.5 555.3 L328.5 546.3 L326.0 537.0 L323.9 527.5 L322.3 518.0 L321.3 508.3 L320.7 498.5 L320.6 488.6 L321.0 478.7 L322.0 468.7 L323.4 458.8 L325.4 448.9 L327.9 439.1 L330.9 429.4 L334.5 419.8 L338.5 410.3 L343.1 401.0 L348.1 391.9 L353.7 383.1 L359.7 374.5 L366.2 366.2 L373.1 358.1 L380.5 350.5 L388.3 343.1 L396.5 336.2 L405.1 329.6 L414.1 323.5 L423.4 317.8 L433.0 312.6 L443.0 307.8 L453.2 303.6 L463.7 299.8 L474.4 296.6 L485.3 294.0 L496.4 291.9 L507.6 290.3 L519.0 289.4 L530.4 289.0 L541.9 289.2 L553.4 290.0 L565.0 291.4 L576.4 293.4 L587.9 296.0 L599.2 299.2 L610.4 303.0 L621.4 307.4 L632.2 312.3 L642.8 317.9 L653.2 324.0 L663.2 330.6 L673.0 337.8 L682.4 345.6 L691.5 353.8 L700.1 362.5 L708.3 371.7 L716.1 381.3 L723.4 391.4 L730.2 401.9 L736.5 412.8 L742.2 424.0 L747.4 435.5 L752.0 447.4 L756.0 459.5 L759.4 471.8 L762.1 484.4 L764.2 497.1 L765.7 510.0 L766.5 523.0 L766.6 536.1 L766.1 549.2 L764.9 562.3 L763.0 575.4 L760.4 588.4 L757.1 601.3 L753.2 614.1 L748.6 626.8 L743.3 639.2 L737.4 651.4 L730.9 663.3 L723.7 674.9 L715.9 686.1 L707.5 697.0 L698.5 707.5 L689.0 717.5 L678.9 727.1 L668.3 736.2 L657.2 744.8 L645.6 752.8 L633.6 760.2 L621.2 767.0 L608.4 773.2 L595.2 778.8 L581.8 783.7 L568.0 787.9 L554.0 791.4 L539.8 794.2 L525.4 796.3 L510.9 797.7 L496.2 798.3 L481.6 798.1 L466.8 797.2 L452.1 795.5 L437.5 793.1 L422.9 789.9 L408.5 786.0 L394.2 781.3 L380.2 775.8 L366.4 769.7 L352.9 762.8 L339.7 755.2 L326.9 746.9 L314.4 737.9 L302.4 728.2 L290.9 718.0 L279.9 707.1 L269.4 695.6 L259.5 683.6 L250.2 671.0 L241.5 657.9 L233.5 644.4 L226.2 630.4 L219.5 616.0 L213.6 601.2 L208.5 586.1 L204.1 570.7 L200.4 555.1 L197.6 539.2 L195.6 523.2 L194.4 507.0 L194.1 490.7 L194.5 474.4 L195.8 458.1 L198.0 441.8 L201.0 425.6 L204.8 409.5 L209.5 393.6 L215.0 377.9 L221.3 362.4 L228.4 347.3 L236.3 332.5 L245.0 318.0" fill="none" stroke="#ffffff"
    stroke-width="74" stroke-linecap="round" stroke-linejoin="round"/>
  <circle cx="512" cy="512" r="36" fill="#ffffff"/>
</svg>